<svg width="480" height="480" viewBox="0 0 480 480" fill="none" xmlns="http://www.w3.org/2000/svg">
<path d="M120.72 63.8402C120.72 65.7602 124.48 285.44 124.48 285.44L365.04 330.48L373.76 84.6402L120.72 63.8402Z" fill="white" stroke="#303030" stroke-width="0.75" stroke-miterlimit="10"/>
<path d="M120.72 63.8403L24 55.6803L44.32 297.2L124.48 285.44L120.72 63.8403Z" fill="white" stroke="#303030" stroke-width="0.75" stroke-miterlimit="10"/>
<path d="M373.76 84.6408L461.36 83.3608L437.76 382.161L365.04 330.481L373.76 84.6408Z" fill="white" stroke="#303030" stroke-width="0.75" stroke-miterlimit="10"/>
<path d="M71.9194 59.6803L90.5594 290.4" stroke="#303030" stroke-width="3" stroke-miterlimit="10"/>
<path d="M30.96 138L120.72 134.4" stroke="#303030" stroke-width="3" stroke-miterlimit="10"/>
<path d="M38.2402 224.72L123.28 214.48" stroke="#303030" stroke-width="3" stroke-miterlimit="10"/>
<path d="M410.16 84.0804L395.84 352.32" stroke="#303030" stroke-width="3" stroke-miterlimit="10"/>
<path d="M367.76 253.84L445.2 288.24" stroke="#303030" stroke-width="3" stroke-miterlimit="10"/>
<path d="M371.44 150.72L454.88 166.16" stroke="#303030" stroke-width="3" stroke-miterlimit="10"/>
<path d="M211.039 282.8C210.719 288.88 210.399 294.96 210.079 301.04C236.719 306.08 263.439 311.04 290.079 316.08C289.919 314.24 289.839 311.84 289.599 309.04C288.799 296.88 288.559 294.32 288.079 290.88C287.759 288.72 287.199 285.52 286.239 281.6C261.119 282 236.079 282.4 211.039 282.8Z" fill="white"/>
<path d="M210.719 282.8C210.479 288.4 210.159 293.92 209.919 299.52C209.919 299.92 210.479 299.92 210.559 299.52C210.799 293.92 211.119 288.4 211.359 282.8C211.359 282.4 210.799 282.4 210.719 282.8Z" fill="#303030"/>
<path d="M286.8 284.081C288.08 292.8 288.88 301.52 289.36 310.32C289.36 310.72 290 310.72 290 310.32C289.6 301.44 288.72 292.64 287.44 283.921C287.36 283.601 286.8 283.761 286.8 284.081Z" fill="#303030"/>
<path d="M241.039 302.8C242.719 304.32 244.319 305.92 245.759 307.68C245.999 308 246.399 307.52 246.159 307.28C244.719 305.52 243.119 303.92 241.439 302.4C241.199 302.16 240.799 302.56 241.039 302.8Z" fill="#303030"/>
<path d="M200 154.08C199.28 156.48 198.24 160.16 197.6 164.72C196.8 170.32 196.96 174.48 197.12 179.44C197.76 196.56 198.08 205.36 199.2 215.2C199.68 219.6 200.24 223.28 200.72 226.8C202.24 237.2 205.28 255.52 211.04 282.64C213.6 284 217.2 285.76 221.6 287.36C233.84 291.92 244.64 292.72 251.28 292.72C260.4 292.72 267.44 291.36 271.2 290.48C277.36 289.04 282.48 287.04 286.4 285.28C286.88 282.16 287.6 277.36 288.48 271.52C290.08 261.44 291.44 254 291.68 252.72C293.2 244.24 295.84 224.72 300.72 178.8C299.92 176.8 298.56 173.84 295.92 171.2C289.84 164.96 281.6 164.4 275.12 163.68C256.32 161.52 261.6 158.8 239.12 155.76C224.56 154.08 211.36 153.68 200 154.08Z" fill="#DED7C6"/>
<path d="M200 154.4C232.8 153.28 265.44 159.12 295.76 171.68C296.08 171.84 296.24 171.28 295.92 171.12C265.6 158.56 232.8 152.64 200 153.84C199.6 153.84 199.6 154.4 200 154.4Z" fill="#303030"/>
<path d="M197.2 168.079C194.96 206.399 202.88 244.159 210.88 281.359C210.96 281.759 211.52 281.599 211.44 281.199C203.44 243.999 195.6 206.319 197.84 168.079C197.84 167.759 197.28 167.759 197.2 168.079Z" fill="#303030"/>
<path d="M212.8 283.92C235.76 295.44 263.04 296.08 286.56 285.68C286.88 285.52 286.64 285.04 286.24 285.2C262.96 295.6 235.84 294.96 213.12 283.44C212.72 283.28 212.48 283.76 212.8 283.92Z" fill="#303030"/>
<path d="M299.68 180.239C297.2 214.559 292.72 248.719 286.16 282.479C286.08 282.879 286.64 283.039 286.72 282.639C293.2 248.799 297.76 214.559 300.24 180.239C300.24 179.839 299.68 179.839 299.68 180.239Z" fill="#303030"/>
<path d="M224.799 152.24C224.239 152.4 222.319 153.04 219.679 153.12C218.799 153.2 217.199 153.2 215.279 152.8C213.439 152.4 211.359 152 209.679 150.32C206.879 147.6 207.119 143.68 207.199 143.12C207.439 140.4 208.799 138.64 209.999 136.96C212.879 133.2 216.479 131.68 217.359 131.36C220.719 130.08 223.599 130.24 225.439 130.32C227.999 130.48 231.199 131.76 237.599 134.24C239.279 134.88 242.719 136.24 247.039 138.4C250.719 140.24 251.679 141.04 252.479 142C254.799 144.72 255.199 148 255.359 149.52C255.599 151.44 255.839 153.2 255.119 154.96C253.919 158.16 250.239 160.56 246.879 160.96C238.079 162.16 231.279 150.48 224.799 152.24Z" fill="#303030"/>
<path d="M223.119 152.64C223.039 154 223.039 156 223.439 158.32C223.839 160.88 224.319 163.68 226.319 166.56C227.999 168.96 229.999 170.32 231.199 171.04C231.999 171.52 234.079 172.64 237.119 173.04C238.239 173.2 240.799 173.44 243.839 172.48C247.199 171.44 249.359 169.68 249.919 169.2C251.439 167.84 252.399 166.48 252.799 165.68C253.599 164.32 256.159 160.08 254.719 155.44C253.999 153.04 252.479 151.52 251.919 150.96C249.519 148.64 246.799 147.92 245.679 147.76C241.599 147.52 238.559 148.16 236.479 148.8C233.439 149.76 231.519 151.12 227.199 152.08C225.599 152.4 224.079 152.56 223.119 152.64Z" fill="white"/>
<path d="M222.88 152.64C222.96 157.6 223.28 162.8 226.32 166.96C229.04 170.72 233.36 173.04 238 173.44C247.04 174.08 256.48 166.88 254.72 157.28C254.64 156.88 254.08 157.04 254.16 157.44C256.08 167.84 244.56 174.72 235.44 172.4C226.08 170 223.76 161.28 223.6 152.72C223.44 152.24 222.88 152.24 222.88 152.64Z" fill="#303030"/>
<path d="M234.719 154.159C233.999 157.039 231.999 166.319 236.799 166.639C237.199 166.639 237.199 166.079 236.799 165.999C236.079 165.279 235.439 164.639 234.719 163.919C234.639 163.279 234.559 162.559 234.479 161.919C234.399 161.119 234.399 160.399 234.479 159.599C234.559 157.759 234.799 155.999 235.279 154.239C235.359 153.999 234.799 153.839 234.719 154.159Z" fill="#303030"/>
<path d="M235.039 148.88C227.759 151.12 216.639 156.32 209.919 150.16C202.239 143.2 212.719 132.72 219.679 130.88C227.119 128.88 237.599 134.4 244.159 137.44C247.039 138.8 250.479 140.16 252.559 142.64C255.599 146.08 255.199 150.88 254.799 155.12C254.799 155.52 255.359 155.52 255.439 155.12C255.759 151.12 256.159 146.64 253.759 143.2C251.359 139.68 246.799 138 243.039 136.32C234.639 132.56 223.839 126.88 215.119 132.32C209.679 135.68 203.439 143.44 208.639 149.76C214.959 157.44 227.839 151.76 235.199 149.44C235.519 149.36 235.359 148.72 235.039 148.88Z" fill="#303030"/>
<path d="M235.599 149.36C242.879 147.36 251.359 146.88 254.479 155.52C254.639 155.92 255.199 155.76 255.039 155.36C251.839 146.4 243.119 146.72 235.439 148.8C235.039 148.88 235.199 149.44 235.599 149.36Z" fill="#303030"/>
<path d="M230.879 159.44C231.365 159.44 231.759 158.831 231.759 158.08C231.759 157.329 231.365 156.72 230.879 156.72C230.393 156.72 229.999 157.329 229.999 158.08C229.999 158.831 230.393 159.44 230.879 159.44Z" fill="#303030"/>
<path d="M243.679 159.44C244.165 159.44 244.559 158.831 244.559 158.08C244.559 157.329 244.165 156.72 243.679 156.72C243.193 156.72 242.799 157.329 242.799 158.08C242.799 158.831 243.193 159.44 243.679 159.44Z" fill="#303030"/>
<path d="M221.439 157.759C221.999 156.959 223.279 155.439 225.439 154.559C226.159 154.239 229.039 153.039 232.079 154.319C235.679 155.759 236.799 159.359 236.959 159.999C237.119 160.559 238.399 164.879 235.599 168.399C235.279 168.799 233.599 170.959 231.439 171.199C227.919 171.599 223.359 166.319 221.439 157.759Z" fill="#303030"/>
<path d="M222.4 157.119C221.68 157.679 220.4 158.719 219.44 160.319C218.08 162.719 218 165.039 218 166.319C218 166.879 218.24 169.039 219.52 171.279C220.24 172.479 221.2 174.159 223.2 175.039C225.52 176.079 227.76 175.439 228.56 175.279C229.12 175.119 230.72 174.639 232.24 173.279C232.56 172.959 233.84 171.759 234.64 169.679C235.44 167.599 235.28 165.839 235.2 165.039C235.04 162.959 234.32 161.519 234.08 161.039C233.84 160.639 233.12 159.199 231.52 157.759C230.88 157.199 230 156.399 228.8 155.999C225.92 154.959 223.04 156.639 222.4 157.119Z" fill="white"/>
<path d="M207.68 178.799C208.64 176.559 209.68 174.239 210.64 171.999C210.88 169.279 211.52 165.359 213.6 161.119C214.8 158.719 216.56 155.279 220.4 152.319C224.32 149.279 228.4 148.319 230.64 147.999C232.32 149.679 232.88 151.919 232.16 153.599C232 153.999 231.68 154.559 230.96 155.119C230.08 154.879 226.56 154.239 223.2 156.319C220.96 157.679 219.84 159.599 219.44 160.399C217.92 163.119 218 165.759 218 166.399C218.08 167.199 218.16 169.279 219.52 171.359C220.96 173.519 222.8 174.559 223.68 174.959C225.04 174.959 226.08 175.759 226.32 176.719C226.48 177.519 226.08 178.159 226.08 178.239C225.92 178.479 225.6 178.959 224.56 179.279C223.2 179.679 222.08 179.439 220.8 179.279C218.72 178.959 217.76 178.799 216.64 178.879C213.76 178.959 212.96 180.319 210.64 180.079C209.44 179.839 208.32 179.279 207.68 178.799Z" fill="white"/>
<path d="M200 154.079C198.32 154.559 196 155.199 193.2 156.159C191.36 156.799 186.24 158.559 176.88 163.119C170.4 166.239 165.84 168.559 160 172.319C154.4 175.999 152.08 178.159 150.56 179.759C149.36 181.039 146.16 184.639 144.08 189.999C142.48 193.999 142.72 195.839 142.96 196.799C143.68 199.839 146.08 201.599 146.48 201.919C147.52 202.639 149.68 203.839 156.32 203.199C160.4 202.799 163.44 201.999 166.88 200.959C172.48 199.279 176.32 198.159 181.68 195.999C184.88 194.719 190.4 192.559 197.2 188.719C201.68 186.239 207.36 182.639 213.44 177.839C213.44 177.119 213.44 175.919 212.88 174.559C212.16 172.799 211.04 171.759 210.48 171.359C208.16 172.159 205.28 172.799 202 172.959C200.88 173.039 199.76 173.039 198.72 172.959C199.12 166.799 199.6 160.479 200 154.079Z" fill="#DED7C6"/>
<path d="M198.16 154.079C184.48 158.879 170.8 164.879 158.72 172.879C153.76 176.159 149.12 180.079 146.08 185.279C143.92 188.959 141.36 194.799 143.2 199.039C145.36 203.919 152.48 203.999 156.88 203.519C163.44 202.799 170 200.639 176.16 198.479C189.36 193.919 201.76 187.359 213.04 179.119C213.36 178.879 213.04 178.399 212.72 178.639C203.36 185.439 193.28 191.199 182.56 195.519C177.44 197.599 172.16 199.359 166.72 200.799C163.92 201.519 161.12 202.239 158.24 202.719C154.72 203.279 148.88 203.919 145.92 201.359C145.04 199.679 144.08 198.079 143.2 196.399C143.2 195.119 143.28 193.919 143.6 192.639C144 190.959 144.56 189.359 145.28 187.839C146.56 185.119 148.4 182.639 150.4 180.399C154.56 175.919 159.76 172.719 164.96 169.679C175.6 163.679 186.72 158.639 198.24 154.559C198.64 154.559 198.48 153.999 198.16 154.079Z" fill="#303030"/>
<path d="M166.16 176.72C180.96 175.6 195.68 174.08 210.4 172.16C210.8 172.08 210.8 171.52 210.4 171.52C195.68 173.44 180.96 174.96 166.16 176.08C165.76 176.16 165.76 176.72 166.16 176.72Z" fill="#303030"/>
<path d="M210.48 172.159C212.32 173.519 213.28 175.679 213.12 177.999C213.12 178.399 213.68 178.399 213.76 177.999C213.92 175.519 212.8 173.199 210.8 171.679C210.48 171.359 210.24 171.919 210.48 172.159Z" fill="#303030"/>
<path d="M216.079 177.919C218.479 179.119 224.559 181.359 226.479 178.319C228.319 175.359 223.599 175.199 222.239 174.159C221.919 173.919 221.519 174.319 221.839 174.559C222.239 174.879 222.639 175.119 223.119 175.279C223.519 175.439 223.999 175.519 224.479 175.599C225.519 175.919 225.599 175.839 225.679 177.119C226.159 178.079 225.839 178.639 224.799 178.639C224.319 178.959 223.759 179.119 223.119 179.039C222.399 179.119 221.679 178.959 221.039 178.879C219.439 178.639 217.919 178.159 216.399 177.359C215.999 177.279 215.679 177.759 216.079 177.919Z" fill="#303030"/>
<path d="M217.52 166.159C217.68 158.879 225.28 153.839 232.08 156.879C232.4 157.039 232.72 156.479 232.4 156.399C225.2 153.199 217.12 158.399 216.96 166.239C216.96 166.559 217.52 166.559 217.52 166.159Z" fill="#303030"/>
<path d="M217.2 158C221.28 154.16 226.4 152 232 151.76C232.4 151.76 232.4 151.12 232 151.12C226.24 151.36 220.96 153.6 216.8 157.52C216.56 157.84 216.96 158.32 217.2 158Z" fill="#303030"/>
<path d="M216.799 155.92C220.559 151.92 225.359 149.28 230.719 148.24C231.119 148.16 230.959 147.6 230.559 147.68C225.039 148.72 220.159 151.44 216.319 155.52C216.159 155.76 216.559 156.16 216.799 155.92Z" fill="#303030"/>
<path d="M226.8 175.52C231.616 175.52 235.52 171.078 235.52 165.6C235.52 160.121 231.616 155.68 226.8 155.68C221.984 155.68 218.08 160.121 218.08 165.6C218.08 171.078 221.984 175.52 226.8 175.52Z" stroke="#303030" stroke-width="0.75" stroke-miterlimit="10"/>
<path d="M235.52 165.6C235.28 164.56 235.04 162.64 235.6 160.48C236.88 155.92 240.96 153.92 241.68 153.6C242.24 153.36 245.84 151.92 249.44 153.84C250 154.16 252.64 155.6 253.6 158.4C253.92 159.28 253.84 159.68 253.68 164C253.44 168.88 253.44 169.04 253.28 169.36C251.2 172.32 239.92 167.6 235.52 165.6Z" fill="#303030"/>
<path d="M240.08 157.2C239.28 157.68 237.68 158.8 236.48 160.96C236.08 161.68 234.88 164.08 235.36 167.2C235.44 167.84 236.08 171.28 239.28 173.6C242.64 176 246.24 175.44 247.04 175.28C249.52 174.8 251.04 173.52 251.84 172.88C252.64 172.24 255.12 170.08 255.84 166.32C256.56 162.8 255.28 160 254.64 158.72C254 157.52 252.48 154.88 249.52 153.92C246.32 152.88 242.64 154.24 240.08 157.2Z" fill="white"/>
<path d="M295.84 171.44C296.96 171.84 298.56 172.48 300.4 173.36C304.08 175.04 309.6 177.68 315.2 182.88C317.12 184.64 320.72 188.32 324 193.84C326.64 198.32 327.92 202.16 328.48 203.84C329.12 205.84 329.521 207.6 329.76 208.96C329.6 209.76 329.2 211.04 328.32 212.24C328 212.72 326.88 214.08 324.56 215.28C322.8 216.16 320.24 216.88 315.2 216.64C310.16 216.4 306.4 215.28 305.28 214.96C300.8 213.68 293.68 211.52 285.6 206C280.72 202.72 277.44 199.28 270.96 192.56C266.88 188.32 261.84 182.72 256.48 176C256.56 175.04 256.88 172.96 258.48 170.96C259.36 169.84 260.32 169.2 260.96 168.8C265.52 170.96 270.4 173.04 275.52 175.12C280.88 177.2 286 179.04 290.88 180.64C292.56 177.52 294.24 174.48 295.84 171.44Z" fill="#DED7C6"/>
<path d="M260.48 172C260.96 170.8 261.52 168.8 261.36 166.32C261.2 163.52 260.16 161.52 259.12 159.76C257.76 157.28 256.48 154.88 253.6 153.28C252.56 152.72 249.84 151.2 246.48 151.92C242.16 152.88 240.24 156.8 240 157.36C240.72 156.96 242.96 155.76 245.92 156.08C249.2 156.48 251.2 158.48 251.84 159.12C252.24 159.52 253.68 161.12 254.32 163.76C254.56 164.72 255.12 167.2 253.92 169.92C253.76 170.24 253.12 171.68 251.68 172.96C249.2 175.2 246.24 175.52 244.96 175.6C243.76 175.68 242.72 175.6 242 175.52C242.64 176.24 244.08 177.44 246.16 177.92C250.72 178.96 254.32 175.44 254.56 175.12C255.84 175.68 257.2 176.16 258.48 176.72C259.28 175.04 259.92 173.52 260.48 172Z" fill="white"/>
<path d="M245.12 175.44C250.555 175.44 254.96 171.034 254.96 165.6C254.96 160.165 250.555 155.76 245.12 155.76C239.686 155.76 235.28 160.165 235.28 165.6C235.28 171.034 239.686 175.44 245.12 175.44Z" stroke="#303030" stroke-width="0.75" stroke-miterlimit="10"/>
<path d="M242 175.52C245.2 179.599 250.48 178.08 254.32 175.92C254.64 175.76 254.32 175.2 254 175.44C250.4 177.52 245.44 179.04 242.4 175.2C242.16 174.8 241.76 175.28 242 175.52Z" fill="#303030"/>
<path d="M240.16 155.52C240.56 155.52 240.56 154.88 240.16 154.88C239.76 154.88 239.76 155.52 240.16 155.52Z" fill="#303030"/>
<path d="M240.8 156C243.28 153.76 246.96 153.84 250.08 154.24C250.48 154.32 250.48 153.68 250.08 153.6C246.8 153.2 242.96 153.2 240.4 155.52C240.08 155.84 240.48 156.24 240.8 156Z" fill="#303030"/>
<path d="M245.12 152.8C248.64 152.16 252.08 153.36 254.48 156C254.72 156.32 255.2 155.84 254.88 155.6C252.32 152.8 248.72 151.6 244.96 152.24C244.56 152.32 244.72 152.88 245.12 152.8Z" fill="#303030"/>
<path d="M254.08 154.32C258.32 157.68 260.88 162.4 261.2 167.84C261.2 168.24 261.84 168.24 261.84 167.84C261.52 162.32 258.96 157.36 254.56 153.92C254.24 153.68 253.76 154.08 254.08 154.32Z" fill="#303030"/>
<path d="M260.8 168.48C258.24 170.08 256.56 172.64 256.24 175.6C256.16 176 256.8 176 256.88 175.6C257.2 172.8 258.8 170.4 261.2 168.96C261.36 168.8 261.12 168.24 260.8 168.48Z" fill="#303030"/>
<path d="M261.52 169.12C272.96 174.8 284.8 179.44 297.04 183.2C297.44 183.28 297.6 182.72 297.2 182.64C285.04 178.88 273.2 174.24 261.84 168.64C261.52 168.48 261.2 168.96 261.52 169.12Z" fill="#303030"/>
<path d="M295.521 172C312.561 176.88 325.761 191.12 329.361 208.48C329.441 208.88 330.001 208.72 329.921 208.32C326.241 190.8 312.881 176.4 295.681 171.44C295.361 171.28 295.201 171.84 295.521 172Z" fill="#303030"/>
<path d="M256.16 176.079C266.32 189.519 278.88 202.559 293.92 210.559C302.4 215.039 326.4 223.679 330.08 208.959C330.16 208.559 329.6 208.399 329.52 208.799C327.2 218.159 314.64 216.879 307.36 215.119C300.64 213.519 294.4 210.479 288.64 206.719C276.24 198.639 265.6 187.599 256.72 175.839C256.48 175.439 255.92 175.759 256.16 176.079Z" fill="#303030"/>
<path d="M164.24 289.201L147.84 288.241L144.08 255.121H168.48L164.24 289.201Z" fill="#898989" fill-opacity="0.1"/>
<path d="M156.32 258.481C163.036 258.481 168.48 257.192 168.48 255.601C168.48 254.01 163.036 252.721 156.32 252.721C149.604 252.721 144.16 254.01 144.16 255.601C144.16 257.192 149.604 258.481 156.32 258.481Z" fill="white" stroke="#303030" stroke-width="0.75" stroke-miterlimit="10"/>
<path d="M156.24 256.4C156.16 248 160.24 238.96 154.88 231.28C154 230 151.92 231.2 152.8 232.48C157.84 239.6 153.76 248.48 153.84 256.4C153.84 257.92 156.24 257.92 156.24 256.4Z" fill="#DED7C6"/>
<path d="M159.999 223.121C160.159 228.481 156.879 234.561 155.119 239.521C154.639 240.961 156.959 241.601 157.439 240.161C159.279 234.801 162.559 228.801 162.399 223.121C162.399 221.601 159.999 221.601 159.999 223.121Z" fill="#DED7C6"/>
<path d="M146.32 235.361C149.04 238.481 148.56 242.561 149.68 246.241C150.4 248.801 151.84 250.881 153.76 252.561C154.88 253.601 156.64 251.921 155.44 250.881C150.16 246.241 152.4 238.721 148 233.681C146.96 232.481 145.28 234.241 146.32 235.361Z" fill="#DED7C6"/>
<path d="M262.64 322.24C263.36 328.72 263.6 336.48 262.72 345.2C261.2 361.121 256.48 373.761 252.4 382.401C258.56 385.041 265.44 387.521 272.96 389.761C287.52 394.081 300.88 396.161 312.16 397.121C316 388.801 320.16 377.921 322.96 364.801C325.36 353.441 326.16 343.201 326.32 334.88C320.8 333.76 315.28 332.56 309.76 331.44C310.56 337.28 308 342.801 303.36 345.681C299.76 347.841 295.2 348.24 291.6 346.64C285.36 343.92 281.76 335.52 284.16 326.48C277.04 325.12 269.84 323.68 262.64 322.24Z" fill="#898989" fill-opacity="0.1"/>
<path d="M128.559 295.6C129.279 300.16 130.079 306.96 130.319 315.2C130.799 333.52 127.839 343.92 126.559 357.2C125.599 367.44 125.359 382 128.879 400.08C132.879 400.8 139.039 402.32 145.839 405.76C165.279 415.6 168.159 430.16 181.679 436.4C188.879 439.76 200.719 441.36 220.319 432.16C220.959 428.48 221.999 422.88 223.599 416.16C227.999 397.52 232.959 384.56 234.479 380.32C238.719 368.32 242.159 348.96 237.759 317.36C201.359 310.08 164.959 302.8 128.559 295.6Z" fill="white" stroke="#303030" stroke-width="0.75" stroke-miterlimit="10"/>
<path d="M61.6799 354C59.3599 359.6 56.5599 368.16 56.2399 378.72C55.9199 390.48 58.8799 396.96 60.1599 405.44C61.5999 415.12 61.0399 429.28 51.4399 448.24C57.3599 449.6 63.3599 451.12 69.4399 452.64C90.5599 457.92 110.88 463.68 130.32 469.76C134.4 456.08 135.44 444.88 135.6 437.52C136.16 416.08 130.56 402.88 137.04 384C138.96 378.4 141.36 374.24 142.72 371.92C115.76 366 88.7199 360 61.6799 354Z" fill="#898989" fill-opacity="0.1"/>
<path d="M168.319 339.121C169.199 348.721 169.919 358.721 170.399 368.961C171.679 398.481 170.799 426.001 168.479 451.041C172.159 451.121 177.519 451.361 184.079 452.481C200.319 455.121 210.479 460.561 217.599 463.361C227.759 467.361 243.279 470.561 266.159 466.161C267.599 450.721 266.879 438.161 265.839 429.041C263.919 412.721 260.799 406.241 260.959 393.521C261.199 379.201 265.439 367.361 269.519 358.881C235.759 352.321 202.079 345.681 168.319 339.121Z" fill="white" stroke="#303030" stroke-width="0.75" stroke-miterlimit="10"/>
<path d="M124.48 285.44L19.7598 367.84" stroke="#303030" stroke-width="3" stroke-miterlimit="10"/>
<path d="M365.04 330.48L254.32 440.32" stroke="#303030" stroke-width="3" stroke-miterlimit="10"/>
<path d="M42.6401 349.76L289.68 404.72" stroke="#303030" stroke-miterlimit="10"/>
<path d="M78.4795 321.6L325.439 369.76" stroke="#303030" stroke-miterlimit="10"/>
<path d="M114.96 292.881L354.88 340.561" stroke="#303030" stroke-miterlimit="10"/>
<path d="M74.5597 351.601C73.8397 354.481 73.1197 357.361 72.3997 360.161C71.9997 361.681 74.3197 362.321 74.7197 360.801C75.4397 357.921 76.1597 355.041 76.8797 352.241C77.1997 350.721 74.8797 350.081 74.5597 351.601Z" fill="#303030"/>
<path d="M74.48 356.321C75.44 357.041 76.48 357.841 77.44 358.561C77.92 358.961 78.8 358.641 79.12 358.161C79.44 357.521 79.2 356.881 78.72 356.481C77.76 355.761 76.72 354.961 75.76 354.241C75.28 353.841 74.4 354.161 74.08 354.641C73.68 355.281 73.92 355.921 74.48 356.321Z" fill="#303030"/>
<path d="M113.04 358.721C111.76 361.761 110.4 364.721 109.12 367.761C108.48 369.201 110.56 370.401 111.2 368.961C112.48 365.921 113.84 362.961 115.12 359.921C115.68 358.481 113.6 357.281 113.04 358.721Z" fill="#303030"/>
<path d="M111.28 364.96C112.48 365.84 113.76 366.72 114.96 367.6C116.24 368.48 117.44 366.4 116.16 365.52C114.96 364.64 113.68 363.76 112.48 362.88C111.28 362 110.08 364.08 111.28 364.96Z" fill="#303030"/>
<path d="M146.88 294.4C146.64 296.4 146.4 298.48 146.16 300.48C146 302 148.4 302 148.56 300.48C148.8 298.48 149.04 296.4 149.28 294.4C149.44 292.88 147.04 292.88 146.88 294.4Z" fill="#303030"/>
<path d="M202.639 306.561C202.639 309.121 202.319 311.521 201.519 314.001C201.039 315.441 203.359 316.081 203.839 314.641C204.639 312.001 205.039 309.361 205.039 306.561C204.959 305.041 202.559 305.041 202.639 306.561Z" fill="#303030"/>
<path d="M199.36 341.681C198.4 344.081 198 346.641 198.16 349.201C198.24 350.721 200.64 350.721 200.56 349.201C200.4 346.801 200.8 344.561 201.6 342.321C202.24 340.881 199.92 340.241 199.36 341.681Z" fill="#303030"/>
<path d="M247.28 352.161C246.88 354.161 246.56 356.241 246.16 358.241C245.92 359.761 248.16 360.401 248.48 358.881C248.88 356.881 249.2 354.801 249.6 352.801C249.92 351.281 247.6 350.641 247.28 352.161Z" fill="#303030"/>
<path d="M272.8 322.08C272.8 322.8 272.64 323.44 272.08 324C270.96 325.12 272.64 326.8 273.76 325.68C274.72 324.72 275.28 323.44 275.2 322.08C275.12 320.56 272.72 320.56 272.8 322.08Z" fill="#303030"/>
<path d="M319.84 331.12C319.52 332.4 319.28 333.76 318.96 335.04C318.64 336.56 320.96 337.2 321.28 335.68C321.6 334.4 321.84 333.04 322.16 331.76C322.48 330.24 320.16 329.6 319.84 331.12Z" fill="#303030"/>
</svg>
