<svg width="60" height="60" viewBox="0 0 60 60" fill="none" xmlns="http://www.w3.org/2000/svg">
<rect width="60" height="60" rx="30" fill="url(#paint0_linear_44_8140)"/>
<path d="M41.0236 18.9763L42.0843 17.9157V17.9157L41.0236 18.9763ZM22.6667 42.0473V43.5473C23.0645 43.5473 23.446 43.3893 23.7273 43.108L22.6667 42.0473ZM18 42.0473H16.5C16.5 42.8757 17.1716 43.5473 18 43.5473V42.0473ZM18 37.2859L16.9393 36.2252C16.658 36.5065 16.5 36.8881 16.5 37.2859H18ZM37.3702 20.037C38.0862 19.321 39.247 19.321 39.963 20.037L42.0843 17.9157C40.1967 16.0281 37.1364 16.0281 35.2489 17.9157L37.3702 20.037ZM39.963 20.037C40.6789 20.7529 40.6789 21.9137 39.963 22.6297L42.0843 24.751C43.9718 22.8635 43.9718 19.8032 42.0843 17.9157L39.963 20.037ZM39.963 22.6297L21.606 40.9866L23.7273 43.108L42.0843 24.751L39.963 22.6297ZM22.6667 40.5473H18V43.5473H22.6667V40.5473ZM35.2489 17.9157L16.9393 36.2252L19.0607 38.3465L37.3702 20.037L35.2489 17.9157ZM16.5 37.2859V42.0473H19.5V37.2859H16.5ZM33.2489 22.037L37.963 26.751L40.0843 24.6297L35.3702 19.9157L33.2489 22.037Z" fill="#303030"/>
<defs>
<linearGradient id="paint0_linear_44_8140" x1="3.2986e-07" y1="4.24527" x2="61.7817" y2="6.2949" gradientUnits="userSpaceOnUse">
<stop stop-color="#F9DD7D"/>
<stop offset="1" stop-color="#F8F0A0"/>
</linearGradient>
</defs>
</svg>
