<svg width="480" height="480" viewBox="0 0 480 480" fill="none" xmlns="http://www.w3.org/2000/svg">
<path d="M45.2 263.68C99.36 255.28 154.24 260.8 208.4 266.32C235.44 269.12 262.56 271.84 289.68 272.96C317.36 274.08 344.96 272.64 372.56 270.96C404 269.04 435.52 267.2 466.96 269.76C467.36 269.76 467.36 269.2 466.96 269.12C410.88 264.48 354.96 273.92 298.88 272.56C244.24 271.2 190.16 262.24 135.6 259.44C105.36 257.92 74.96 258.32 44.96 263.04C44.64 263.12 44.8 263.68 45.2 263.68Z" fill="white"/>
<path d="M309.52 59.6C309.52 49.6 302.08 41.52 292.96 41.52C283.84 41.52 276.4 49.6 276.4 59.6C276.4 67.84 281.44 74.8 288.32 76.96V84.56H297.28V77.04C304.32 74.96 309.52 68 309.52 59.6Z" fill="white" stroke="#303030" stroke-width="0.75" stroke-miterlimit="10"/>
<path d="M300 83.6801H285.92V90.8001H300V83.6801Z" fill="#DED7C6"/>
<path d="M285.84 85.92H300.08" stroke="#303030" stroke-width="0.75" stroke-miterlimit="10"/>
<path d="M285.92 88.72H299.68" stroke="#303030" stroke-width="0.75" stroke-miterlimit="10"/>
<path d="M292.96 83.0401V57.6801" stroke="#303030" stroke-width="0.75" stroke-miterlimit="10"/>
<path d="M287.12 56.48L292.8 66.48" stroke="#303030" stroke-width="0.75" stroke-miterlimit="10"/>
<path d="M298.8 56.3201L293.12 66.3201" stroke="#303030" stroke-width="0.75" stroke-miterlimit="10"/>
<path d="M258 46.3201L269.76 48.6401" stroke="#303030" stroke-width="0.75" stroke-miterlimit="10"/>
<path d="M269.12 31.76L274.96 38.64" stroke="#303030" stroke-width="0.75" stroke-miterlimit="10"/>
<path d="M283.28 23.52L285.68 33.6" stroke="#303030" stroke-width="0.75" stroke-miterlimit="10"/>
<path d="M296.8 33.04L298.72 25.52" stroke="#303030" stroke-width="0.75" stroke-miterlimit="10"/>
<path d="M304.96 39.44L313.68 29.28" stroke="#303030" stroke-width="0.75" stroke-miterlimit="10"/>
<path d="M311.36 46.64L324.96 40.64" stroke="#303030" stroke-width="0.75" stroke-miterlimit="10"/>
<path d="M313.68 54.56L321.92 54" stroke="#303030" stroke-width="0.75" stroke-miterlimit="10"/>
<path d="M314.88 61.36L320.08 63.76" stroke="#303030" stroke-width="0.75" stroke-miterlimit="10"/>
<path d="M260.96 63.12L270.8 59.36" stroke="#303030" stroke-width="0.75" stroke-miterlimit="10"/>
<path d="M273.12 66.72L267.68 72.8" stroke="#303030" stroke-width="0.75" stroke-miterlimit="10"/>
<path d="M152.16 301.84L70.4 336.08L39.36 295.36L115.36 269.6L152.16 301.84Z" fill="white" stroke="#303030" stroke-width="0.75" stroke-miterlimit="10"/>
<path d="M233.36 421.6C233.84 419.28 234.88 415.76 237.12 412.16C238.72 409.52 240.48 407.68 241.84 406.48C243.04 406.56 249.68 407.2 252.8 413.28C254.24 416.16 255.2 420.8 253.76 422.32C252.64 423.52 251.28 421.92 247.52 422.32C244.4 422.64 243.76 423.92 241.28 424.24C239.36 424.4 236.72 424.08 233.36 421.6Z" fill="white" stroke="#303030" stroke-width="0.75" stroke-miterlimit="10"/>
<path d="M65.2 402.32C65.04 401.44 65.28 400.72 72 394.08C74.56 391.52 75.6 390.56 77.2 390.56C79.2 390.64 80.64 392.24 81.28 393.04C84.64 392.32 87.76 392.88 89.2 394.72C90.32 396.08 90.16 397.68 90.08 398C89.44 403.36 78.64 408.88 70.72 406.48C69.92 406.24 65.68 404.88 65.2 402.32Z" fill="white" stroke="#303030" stroke-width="0.75" stroke-miterlimit="10"/>
<path d="M24 337.44C22.32 333.6 24 327.2 27.76 326.96C29.68 326.88 30.08 328.4 32.72 328.64C36.88 329.04 38.56 325.68 41.28 326.48C43.36 327.12 44.16 329.68 45.04 332.72C45.92 335.44 46.48 337.28 45.76 338.72C43.2 343.84 26.72 343.6 24 337.44Z" fill="white" stroke="#303030" stroke-width="0.75" stroke-miterlimit="10"/>
<path d="M233.52 421.44C234.96 418.64 236.24 414.48 238.48 412.08C240.8 409.6 243.52 411.44 245.52 412.8C246.24 413.28 251.2 418.24 248.08 417.84C246.64 417.68 245.12 415.6 243.36 416.64C242.8 416.96 242.96 417.12 242.64 417.6C242.48 417.76 242.56 418.08 242.48 418.24C241.76 420.24 240.8 421.92 238.4 421.92C238 421.92 238 422.48 238.4 422.56C239.84 422.56 241.04 422.08 242 420.96C242.48 420.4 242.48 419.92 242.88 419.36C242.96 417.92 244 417.28 245.84 417.36C246.72 417.68 247.44 418.08 248.16 418.64C250.16 419.2 250.8 418.24 249.84 416.32C248.96 414.64 247.44 413.36 245.92 412.32C244.72 411.52 242 409.52 240.4 409.76C239.12 409.92 238.08 411.68 237.52 412.72C235.84 415.44 234.56 418.4 233.12 421.2C232.8 421.44 233.28 421.76 233.52 421.44Z" fill="#303030"/>
<path d="M238.72 421.76C237.44 420.32 237.52 418.16 238.64 416.64C239.44 415.44 241.52 414 243.04 414C243.36 413.84 243.68 413.92 243.92 414.32C243.84 415.68 243.12 416.32 241.6 416.48C241.12 416.56 240.96 416.48 240.56 416.72C239.92 417.04 239.6 417.44 239.52 418.16C239.44 418.56 240 418.72 240.08 418.32C240.16 417.68 241.76 417.2 242.24 417.12C242.48 417.04 242.72 417.04 242.88 416.96C243.28 416.8 243.6 416.48 243.92 416.16C244.48 415.36 244.72 414.32 244.32 413.44C244.24 413.36 244.16 413.28 244.08 413.28C242 413.12 239.28 414.64 238.16 416.4C236.96 418.16 236.88 420.64 238.32 422.24C238.56 422.48 238.96 422.08 238.72 421.76Z" fill="#303030"/>
<path d="M80.88 393.36C81.2 394.08 81.52 394.64 82 395.2C82.48 395.68 83.68 396.16 83.92 396.56C85.12 398.88 83.28 399.44 81.52 400.08C80.72 400.4 79.6 400.8 78.72 400.96C76.96 401.2 76 400 74.24 400.16C72.88 400.32 71.9199 401.2 71.1199 402.16C70.3199 403.12 69.1999 404.4 70.4799 405.2C70.7999 405.36 71.9999 405.28 72.0799 405.28C73.5199 405.28 74.4 405.44 75.84 405.52C77.36 405.68 77.76 405.28 79.28 404.4C79.6 404.24 79.28 403.68 78.96 403.92C77.1199 405.04 75.92 404.72 73.9999 404.64C73.2799 404.56 70.8799 405.12 70.5599 404C70.4799 403.68 71.8399 402.08 71.9999 401.92C74.72 399.68 75.6799 401.6 77.7599 401.68C79.04 401.68 80.72 400.96 81.92 400.48C83.04 400.08 85.44 399.6 85.52 398C85.52 397.52 85.28 397.28 85.04 396.88C83.92 395.36 82.08 395.12 81.12 393.04C81.2 392.72 80.72 393.04 80.88 393.36Z" fill="#303030"/>
<path d="M24 332.72C26.32 330.24 28.88 330.88 31.44 332.64C33.28 333.92 35.04 335.36 36.64 336.8C39.12 339.04 37.44 338.4 34.88 337.92C32.48 337.44 30.16 336.64 27.84 335.68C27.68 335.6 27.36 335.68 27.36 335.92C27.44 337.84 28.32 339.04 30 339.92C30.32 340.08 30.64 339.6 30.32 339.44C29.04 338.96 28.48 338.08 28.56 336.64C28.88 336.8 29.28 336.96 29.6 337.04C30.56 337.12 31.76 337.76 32.64 338C34.72 338.56 36.88 338.88 39.04 339.04C39.28 339.04 39.44 338.72 39.28 338.56C36.48 335.76 33.2 332.72 29.68 330.8C27.12 329.44 25.36 330.32 23.52 332.32C23.36 332.56 23.76 332.96 24 332.72Z" fill="#303030"/>
<path d="M37.44 334.32C37.76 334.08 37.92 333.84 38.08 333.52C38.4 332.88 38.4 332.32 39.36 332.64C40.8 333.12 42.16 334.72 42.96 336C43.2 336.32 43.68 336 43.44 335.68C42.56 334.24 40.96 332.48 39.28 331.92C37.76 331.44 38 333.2 37.12 333.84C36.88 334.08 37.12 334.56 37.44 334.32Z" fill="#303030"/>
<path d="M57.04 299.6L73.2 319.68" stroke="#DED7C6" stroke-miterlimit="10"/>
<path d="M69.6 288.16L91.36 315.04" stroke="#DED7C6" stroke-miterlimit="10"/>
<path d="M86.08 291.04L97.76 306.08" stroke="#DED7C6" stroke-miterlimit="10"/>
<path d="M96.3199 281.84L111.6 301.6" stroke="#DED7C6" stroke-miterlimit="10"/>
<path d="M310.8 410.56L259.04 402.96L300.32 366.8L346.88 372.16L310.8 410.56Z" fill="white" stroke="#303030" stroke-width="0.75" stroke-miterlimit="10"/>
<path d="M201.2 428.96H111.6L130.56 383.92H220.16L201.2 428.96Z" fill="white" stroke="#303030" stroke-width="0.75" stroke-miterlimit="10"/>
<path d="M281.76 398.24L300.48 401.04" stroke="#DED7C6" stroke-miterlimit="10"/>
<path d="M285.2 389.52L318.16 394.16" stroke="#DED7C6" stroke-miterlimit="10"/>
<path d="M286.96 383.2L324.16 388.72" stroke="#DED7C6" stroke-miterlimit="10"/>
<path d="M298.56 376.32L330.56 380.88" stroke="#DED7C6" stroke-miterlimit="10"/>
<path d="M208.4 392.8L198.24 415.52" stroke="#DED7C6" stroke-miterlimit="10"/>
<path d="M199.92 387.76L183.2 421.6" stroke="#DED7C6" stroke-miterlimit="10"/>
<path d="M186.24 390.56L174.88 414.16" stroke="#DED7C6" stroke-miterlimit="10"/>
<path d="M172.56 390.56L158.8 419.2" stroke="#DED7C6" stroke-miterlimit="10"/>
<path d="M138.64 385.36L123.76 420.64" stroke="#DED7C6" stroke-miterlimit="10"/>
<path d="M148.4 390.56L138.64 414.24" stroke="#DED7C6" stroke-miterlimit="10"/>
<path d="M426 393.52L366 377.36L422.4 322.64L471.92 325.68L426 393.52Z" fill="white" stroke="#303030" stroke-width="0.75" stroke-miterlimit="10"/>
<path d="M425.2 384.64L379.04 373.04L423.12 326.8L463.44 328.8L425.2 384.64Z" fill="white" stroke="#303030" stroke-width="0.75" stroke-miterlimit="10"/>
<path d="M385.68 374.72L430.24 327.12" stroke="#303030" stroke-width="0.75" stroke-miterlimit="10"/>
<path d="M395.2 377.12L438.96 327.6" stroke="#303030" stroke-width="0.75" stroke-miterlimit="10"/>
<path d="M404.8 379.52L446.72 328" stroke="#303030" stroke-width="0.75" stroke-miterlimit="10"/>
<path d="M414.32 381.92L454.32 328.32" stroke="#303030" stroke-width="0.75" stroke-miterlimit="10"/>
<path d="M385.12 366.64L431.52 375.44" stroke="#303030" stroke-width="0.75" stroke-miterlimit="10"/>
<path d="M398.56 361.04L437.04 367.36" stroke="#303030" stroke-width="0.75" stroke-miterlimit="10"/>
<path d="M405.36 353.76L443.36 358.08" stroke="#303030" stroke-width="0.75" stroke-miterlimit="10"/>
<path d="M412.64 345.92L449.04 349.84" stroke="#303030" stroke-width="0.75" stroke-miterlimit="10"/>
<path d="M412.24 338.16L454.56 341.68" stroke="#303030" stroke-width="0.75" stroke-miterlimit="10"/>
<path d="M417.76 332.32L459.2 334.96" stroke="#303030" stroke-width="0.75" stroke-miterlimit="10"/>
<path d="M471.92 325.68L426 393.52L379.04 334.8L436.8 277.36L471.92 325.68Z" fill="white" stroke="#303030" stroke-width="0.75" stroke-miterlimit="10"/>
<path d="M425.68 337.28C423.6 336.48 421.52 334.16 421.84 331.68C422.72 325.12 425.76 329.36 427.44 329.76C428.96 330.08 430.4 330.8 431.84 329.76C433.04 328.88 433.2 327.6 432.96 326.16C432.72 324.56 431.6 322.96 432.4 321.28C435.04 315.92 438.96 321.44 440.08 323.84C440.72 325.28 442.8 324 442.16 322.64C440.48 319.04 436.32 314.64 432.08 317.68C430.8 318.56 430.08 320.08 429.84 321.52C429.68 322.4 429.68 323.2 429.84 324.08C430 324.8 430.16 325.52 430.48 326.16C429.68 327.92 428.64 328.16 427.44 326.96C423.92 325.28 420.48 326.08 419.6 330.32C418.72 334.4 421.36 338.08 425.04 339.52C426.48 340.16 427.12 337.84 425.68 337.28Z" fill="#DED7C6"/>
<path d="M366 377.36C366.32 377.84 366.88 378.48 367.76 379.12C369.44 380.32 371.04 380.48 373.28 380.8C375.2 381.12 377.12 381.6 379.04 381.84C385.6 382.64 396.72 386.24 407.28 389.04C411.76 390.24 418.16 391.84 426 393.44" fill="#303030"/>
<path d="M379.04 334.8C378.8 335.28 378.56 335.68 378.24 336.16C409.84 374.56 425.76 393.76 426 393.6C426.16 393.36 410.48 373.84 379.04 334.8Z" fill="#303030"/>
<path d="M364 327.12L277.04 357.2C276.4 357.44 275.6 357.36 275.04 356.96L229.2 324.72C227.68 323.68 228.08 321.28 229.92 320.8L311.6 299.84C312.08 299.68 312.64 299.76 313.04 300L364.16 323.12C365.92 323.84 365.84 326.48 364 327.12Z" fill="#DED7C6"/>
<path d="M360.88 323.68L277.44 352.8C276.8 353.04 276.08 352.96 275.52 352.56L231.52 321.36C230.08 320.32 230.48 318.08 232.24 317.6C238.64 314.16 249.04 309.68 262.4 309.12C267.2 308.88 271.6 309.28 275.36 309.84C280.08 307.28 285.76 304.48 292.48 302.16C299.2 299.76 305.36 298.32 310.64 297.36C310.8 297.28 311.04 297.28 311.36 297.28C311.6 297.28 311.84 297.36 312.08 297.44L361.12 319.84C362.8 320.56 362.64 323.04 360.88 323.68Z" fill="white"/>
<path d="M230.88 318.96C244.08 309.76 260.16 308.4 275.76 310.32C276.16 310.4 276.16 309.76 275.76 309.68C260.08 307.76 243.84 309.12 230.56 318.4C230.32 318.72 230.56 319.2 230.88 318.96Z" fill="#303030"/>
<path d="M231.6 319.68C246.24 328.96 260.64 338.64 274.8 348.64C275.12 348.88 275.44 348.32 275.12 348.16C260.96 338.16 246.56 328.48 231.92 319.2C231.6 318.96 231.28 319.44 231.6 319.68Z" fill="#303030"/>
<path d="M251.84 335.04C259.6 340.08 267.2 345.36 274.72 350.72C275.04 350.96 275.36 350.4 275.04 350.24C267.52 344.88 259.92 339.6 252.16 334.56C251.76 334.24 251.52 334.8 251.84 335.04Z" fill="#303030"/>
<path d="M275.44 310.08C286.48 303.12 298.88 298.88 311.92 297.68C312.32 297.68 312.32 297.04 311.92 297.04C298.8 298.24 286.32 302.48 275.12 309.52C274.8 309.76 275.12 310.32 275.44 310.08Z" fill="#303030"/>
<path d="M277.92 311.52C291.44 319.68 304.64 328.4 317.52 337.52C317.84 337.76 318.16 337.2 317.84 337.04C304.96 327.92 291.68 319.28 278.24 311.04C277.84 310.8 277.52 311.36 277.92 311.52Z" fill="#303030"/>
<path d="M276.64 348.24C288 341.68 300.56 337.92 313.68 337.12C314.08 337.12 314.08 336.48 313.68 336.48C300.48 337.2 287.84 341.04 276.4 347.68C276 347.92 276.32 348.48 276.64 348.24Z" fill="#303030"/>
<path d="M319.2 335.92C331.2 329.84 343.76 325.04 356.8 321.6C357.2 321.52 357.04 320.96 356.64 321.04C343.52 324.48 330.96 329.28 318.88 335.36C318.56 335.6 318.88 336.08 319.2 335.92Z" fill="#303030"/>
<path d="M279.44 349.2C287.84 345.68 296.4 342.56 305.04 339.84C305.44 339.76 305.28 339.12 304.88 339.28C296.24 342 287.68 345.12 279.28 348.64C278.96 348.8 279.12 349.36 279.44 349.2Z" fill="#303030"/>
<path d="M295.36 345.44C300.08 343.68 304.88 342.08 309.6 340.48C310 340.32 309.84 339.76 309.44 339.92C304.64 341.52 299.92 343.2 295.2 344.88C294.88 345.04 295.04 345.6 295.36 345.44Z" fill="#303030"/>
<path d="M324.4 335.2C330.4 332.64 336.48 330.32 342.56 328.08C342.88 327.92 342.8 327.36 342.4 327.52C336.24 329.84 330.16 332.16 324.08 334.72C323.76 334.88 324.08 335.36 324.4 335.2Z" fill="#303030"/>
<path d="M342.16 329.76C347.44 327.68 352.72 325.68 358.08 323.6C358.4 323.44 358.32 322.88 357.92 323.04C352.64 325.12 347.36 327.12 342 329.2C341.68 329.28 341.84 329.84 342.16 329.76Z" fill="#303030"/>
<path d="M272 340.16C281.68 335.52 291.92 332.48 302.64 331.12C303.04 331.04 303.04 330.48 302.64 330.48C291.84 331.84 281.52 334.96 271.76 339.6C271.36 339.76 271.68 340.32 272 340.16Z" fill="#303030"/>
<path d="M287.04 338.56C289.44 337.52 291.92 336.88 294.48 336.56C294.88 336.48 294.88 335.92 294.48 335.92C291.76 336.24 289.2 336.96 286.72 338C286.4 338.24 286.72 338.72 287.04 338.56Z" fill="#303030"/>
<path d="M259.28 328C265.84 323.84 273.04 321.6 280.8 321.44C281.2 321.44 281.2 320.8 280.8 320.8C272.96 320.96 265.6 323.2 259.04 327.44C258.64 327.68 258.96 328.24 259.28 328Z" fill="#303030"/>
<path d="M269.04 330.88C272.96 329.2 276.96 327.92 281.04 326.96C281.44 326.88 281.28 326.32 280.88 326.4C276.8 327.36 272.8 328.64 268.88 330.32C268.48 330.48 268.64 331.04 269.04 330.88Z" fill="#303030"/>
<path d="M288.08 312.72C296.8 307.6 306.32 304.32 316.4 302.96C316.8 302.88 316.8 302.32 316.4 302.32C306.24 303.68 296.64 306.96 287.76 312.16C287.44 312.4 287.76 312.88 288.08 312.72Z" fill="#303030"/>
<path d="M306.4 311.68C310.08 310.08 313.84 308.8 317.76 307.92C318.16 307.84 318 307.28 317.6 307.36C313.6 308.24 309.76 309.52 306.08 311.2C305.76 311.28 306.08 311.84 306.4 311.68Z" fill="#303030"/>
<path d="M307.44 321.2C312.96 317.52 318.96 314.8 325.36 313.04C325.76 312.96 325.6 312.32 325.2 312.48C318.72 314.24 312.72 316.96 307.12 320.72C306.8 320.88 307.12 321.44 307.44 321.2Z" fill="#303030"/>
<path d="M324.24 326.16C330.56 322.48 337.36 319.92 344.56 318.56C344.96 318.48 344.8 317.92 344.4 318C337.12 319.36 330.32 321.92 323.92 325.68C323.6 325.84 323.92 326.4 324.24 326.16Z" fill="#303030"/>
<path d="M317.12 297.04C329.44 302.4 341.28 308.48 352.8 315.44C353.12 315.6 353.44 315.12 353.12 314.96C341.68 308.08 329.76 301.92 317.44 296.56C317.04 296.4 316.8 296.96 317.12 297.04Z" fill="#303030"/>
<path d="M209.76 338.8L160.8 366.8L159.84 365.04L208.8 337.04L209.76 338.8Z" fill="#DED7C6"/>
<path d="M161.76 364.24C162.24 364.4 162.64 364.88 162.64 365.44C162.64 365.84 163.28 365.84 163.28 365.44C163.28 364.64 162.72 363.92 161.92 363.68C161.6 363.52 161.44 364.16 161.76 364.24Z" fill="white"/>
<path d="M209.12 336.88C210.32 336.48 211.44 336.08 212.64 335.76C213.04 335.68 212.88 335.12 212.48 335.2C211.28 335.52 210.08 335.92 208.96 336.32C208.56 336.4 208.72 336.96 209.12 336.88Z" fill="#303030"/>
<path d="M210.72 338.56C211.6 337.84 212.4 337.04 213.12 336.16C213.36 335.84 212.96 335.44 212.72 335.76C212 336.64 211.2 337.36 210.32 338.16C210 338.4 210.4 338.8 210.72 338.56Z" fill="#303030"/>
<path d="M212 335.92C212.16 336 212.24 336.16 212.4 336.24C212.64 336.4 212.96 336.24 212.88 335.92C212.88 335.84 212.8 335.68 212.8 335.6C212.8 335.68 212.72 335.76 212.72 335.92C213.12 336 213.28 335.44 212.88 335.36C212.64 335.28 212.48 335.36 212.24 335.52C212.16 335.6 212.16 335.68 212.16 335.84C212.16 335.92 212.24 336.08 212.24 336.16C212.4 336.08 212.56 336 212.72 335.84C212.56 335.76 212.48 335.6 212.32 335.52C212.16 335.2 211.68 335.6 212 335.92Z" fill="#303030"/>
<path d="M108.8 331.92C105.84 333.92 101.52 336.8 96.4 340.4C75.92 354.64 65.68 361.76 66.8 364.72C68.64 369.76 96.88 363.52 100.88 362.64C113.84 359.76 124.16 356 131.04 353.12C131.76 348.48 132.48 343.76 133.12 339.12C125.04 336.64 116.96 334.32 108.8 331.92Z" fill="#303030"/>
<path d="M89.7601 345.52C92.6401 345.6 94.4801 347.84 96.0001 350C96.24 350.32 96.72 350 96.48 349.68C94.8 347.28 92.8001 344.96 89.6801 344.88C89.3601 344.96 89.3601 345.52 89.7601 345.52Z" fill="white"/>
<path d="M96 341.12C98.48 342.24 100.4 344.08 101.52 346.48C101.68 346.8 102.24 346.56 102 346.16C100.8 343.68 98.72 341.68 96.24 340.56C95.92 340.4 95.68 340.96 96 341.12Z" fill="white"/>
<path d="M101.52 337.44C104.16 338.56 106.08 340.72 106.88 343.52C106.96 343.92 107.6 343.76 107.44 343.36C106.64 340.48 104.56 338.08 101.84 336.96C101.44 336.8 101.2 337.36 101.52 337.44Z" fill="white"/>
<path d="M101.52 337.52C100.08 338 97.52 338.48 96.16 337.28C96.72 334.16 97.76 333.52 99.28 335.28C99.52 335.52 99.84 335.68 100.08 335.92C100.8 336.56 100.88 336.88 101.76 336.64C101.92 336.56 102 336.32 102.16 336.24C103.28 335.36 104.4 333.36 106.16 333.6C107.44 333.12 107.68 333.92 107.04 335.92C106.56 336.24 106 336.56 105.44 336.88C104.08 337.6 102.72 338 101.2 338.4C100.8 338.48 100.96 339.04 101.36 338.96C102.8 338.64 110.72 336.32 108.8 333.68C106.56 330.4 102.56 336.24 100.48 335.6C98.88 335.12 98.16 333.04 96.08 333.44C95.04 333.68 94.4 334.4 94.32 335.44C94.16 338.96 99.36 338.96 101.6 338.24C102 337.92 101.92 337.36 101.52 337.52Z" fill="white"/>
<path d="M159.44 201.04C154.8 202.56 153.76 206.72 146.64 218.96C142.96 225.28 143.2 224.24 140 229.6C135.84 236.72 131.6 245.12 125.28 260.72C122.8 266.88 117.12 281.04 110.4 302C106.24 314.8 103.2 325.52 101.12 333.2C101.92 334.32 103.2 335.92 105.28 337.12C106.96 338.08 108.88 338.64 114.88 338.72C117.52 338.8 121.04 338.72 125.2 338.4C127.52 334.32 131.04 328.4 135.52 321.28C137.92 317.44 140.72 313.12 150.88 297.92C154.24 292.88 158.72 286.24 164.08 278.32C166.16 279.84 175.68 286.32 188 284.24C201.44 282 208.32 271.28 210.4 268C221.76 250.32 213.76 229.84 212.72 227.44C205.52 221.52 199.2 217.52 194.8 214.96C186.08 210 184.72 210.64 177.6 205.84C175.76 204.56 173.44 202.96 169.92 201.84C167.52 201.12 163.36 199.84 159.44 201.04Z" fill="white"/>
<path d="M101.36 333.36C108.4 308.72 115.92 284.16 125.76 260.48C130.8 248.32 136.48 236.4 143.04 224.96C146.16 219.44 149.52 214 153.12 208.72C154.8 206.24 156.8 202.72 159.68 201.36C164.56 199.04 169.44 201.92 173.84 204C187.68 210.4 200.64 218.4 212.72 227.76C213.04 228 213.44 227.6 213.12 227.36C202.16 218.88 190.4 211.44 178 205.36C173.28 203.04 166.48 198.48 160.96 200.24C156.32 201.68 153.52 207.12 151.04 210.88C135.6 234.4 124.32 260.48 115.12 287.04C109.84 302.32 105.2 317.76 100.8 333.28C100.72 333.6 101.28 333.76 101.36 333.36Z" fill="#303030"/>
<path d="M182.96 250.64C163.04 279.12 143.68 308 124.96 337.28C124.72 337.6 125.28 337.92 125.44 337.6C144.16 308.32 163.52 279.44 183.44 250.96C183.68 250.64 183.12 250.4 182.96 250.64Z" fill="#303030"/>
<path d="M103.52 336.4C109.44 340.64 116.48 339.6 123.2 338.24C123.6 338.16 123.44 337.6 123.04 337.68C116.48 338.96 109.68 340 103.84 335.84C103.52 335.6 103.2 336.16 103.52 336.4Z" fill="#303030"/>
<path d="M224.32 216.08C228.24 215.76 246.48 214.72 261.68 227.76C275.68 239.68 278.24 255.92 279.2 261.68C280.48 269.68 279.84 276.4 279.12 280.96C276.96 282.8 273.6 285.28 269.12 287.28C262 290.4 255.76 290.64 251.68 290.8C232.96 291.28 223.68 291.52 209.92 290C185.6 287.36 173.36 285.84 171.2 279.84C169.36 274.88 173.44 269.12 179.44 261.68C188.8 250 203.28 233.84 224.32 216.08Z" fill="white"/>
<path d="M196.4 289.28C212.24 290.64 228.24 291.6 244.16 291.36C256.48 291.2 269.2 289.6 279.28 282C279.6 281.76 279.28 281.28 278.96 281.52C268.24 289.68 254.64 290.88 241.6 290.88C226.48 290.88 211.44 290.08 196.4 288.8C196.08 288.64 196.08 289.2 196.4 289.28Z" fill="#303030"/>
<path d="M235.44 109.04C235.36 107.76 235.2 106.08 235.12 104.08C234.88 100.16 234.72 97.6 235.2 94.48C235.52 92.08 236 90.72 237.04 89.84C237.92 89.12 239.04 88.8 239.36 88.72C240.4 88.48 241.28 88.56 242.4 88.72C243.28 88.8 244.08 89.04 244.56 89.12C245.44 85.52 246.56 81.76 247.44 81.84C248.4 81.92 248.56 86.56 248.56 87.36C248.64 90.24 248.4 94.4 246.8 99.36C246.72 100.48 246.64 102.16 246.16 104.08C245.52 107.04 245.12 108.88 243.76 109.84C240.8 112.16 235.68 109.2 235.44 109.04Z" fill="white"/>
<path d="M283.12 132.16C282.72 131.92 282.08 132 280.8 132.08C277.2 132.32 274.96 133.84 270.96 135.92C269.2 136.88 267.36 137.68 265.52 138.64C265.04 138.88 261.36 140.72 254.08 144.32C250.24 146.24 243.92 149.36 234.48 153.92C236.4 146 238.32 137.92 240.24 129.68C241.68 123.36 243.04 117.04 244.4 110.8C243.92 110.32 243.2 109.76 242.4 109.36C239.44 107.92 236.4 108.8 235.52 109.12C234.96 110.4 234 112.64 232.88 115.36C229.92 122.32 224.16 135.68 218.96 149.44C214.48 161.36 218.8 151.12 215.6 160.8C214.48 164.24 213.68 166.32 214.48 168.8C215.44 171.92 218.32 173.52 218.72 173.76C220.72 174.88 222.56 174.8 224.96 174.8C234.72 174.72 223.52 175.68 236.16 175.12C249.12 174.48 255.68 174.16 257.28 173.68C269.68 170.16 276.72 160.32 277.76 158.8C284.56 148.4 286.64 134.16 283.12 132.16Z" fill="#DED7C6"/>
<path d="M280.72 131.76C273.28 133.04 266 138 259.28 141.36C251.44 145.28 243.6 149.2 235.68 153.04C235.36 153.2 235.6 153.76 236 153.52C243.36 149.84 250.8 146.16 258.16 142.56C261.76 140.8 265.28 139.04 268.88 137.2C272.72 135.28 276.56 133.04 280.88 132.32C281.28 132.24 281.12 131.68 280.72 131.76Z" fill="#303030"/>
<path d="M235.2 152.96C238.48 138.96 241.68 124.88 244.72 110.8C244.8 110.4 244.24 110.24 244.16 110.64C241.12 124.72 237.92 138.8 234.64 152.8C234.48 153.2 235.04 153.36 235.2 152.96Z" fill="#303030"/>
<path d="M235.52 109.36C238.24 108.48 241.04 108.8 243.52 110.24C243.84 110.4 244.16 109.92 243.84 109.76C241.2 108.24 238.24 107.84 235.36 108.8C234.96 108.88 235.12 109.44 235.52 109.36Z" fill="#303030"/>
<path d="M234.16 111.44C230.24 120.08 226.32 128.72 222.88 137.52C219.44 146.32 215.36 156 214.16 165.44C213.28 172.16 217.84 174.24 223.76 174.72C234.4 175.68 245.04 174.8 255.68 174C256.08 174 256.08 173.36 255.68 173.36C247.36 174 239.12 174.64 230.8 174.4C227.04 174.32 222.48 174.56 218.88 173.2C212.4 170.72 215.28 162.96 216.56 158C220.96 141.92 227.92 126.72 234.72 111.6C234.8 111.44 234.32 111.12 234.16 111.44Z" fill="#303030"/>
<path d="M244.24 110.08C244.88 108.4 245.44 106.64 246.08 104.96C246.56 103.68 247.2 102.24 247.28 100.88C247.28 99.2 246.32 98.16 244.8 97.6C243.84 97.28 241.2 96.72 240.48 97.84C239.6 99.28 242.16 99.92 242.8 100.48C243.12 100.72 243.52 100.32 243.2 100.08C243.84 100.64 242.24 99.28 242.48 99.52C242.24 99.28 241.6 98.32 242 97.92C242.24 97.68 243.52 98 243.76 98.08C245.52 98.4 246.8 98.88 246.56 101.6C246.32 104.32 244.56 107.36 243.68 109.92C243.6 110.32 244.16 110.48 244.24 110.08Z" fill="#303030"/>
<path d="M235.04 98.7199C235.2 96.7999 235.2 94.7999 235.76 92.9599C236 91.9199 236.48 90.8799 237.2 90.0799C238.08 88.8799 239.12 89.1199 240.32 90.7999C240.32 91.3599 240.32 91.9999 240.16 92.5599C240.08 92.9599 240.64 93.1199 240.72 92.7199C240.96 91.5999 241.2 89.8399 240.4 88.9599C239.6 88.0799 238.24 88.4799 237.44 89.1199C234.56 91.1999 234.8 95.5999 234.48 98.7999C234.4 99.1199 234.96 99.1199 235.04 98.7199Z" fill="#303030"/>
<path d="M240.56 88.96C241.44 88.24 242.48 89.04 242.8 89.92C243.12 90.8 242.96 91.68 242.8 92.56C242.72 92.96 243.28 93.12 243.36 92.72C243.6 91.44 243.84 89.92 242.88 88.8C242.16 88 241.04 87.84 240.16 88.48C239.84 88.8 240.24 89.2 240.56 88.96Z" fill="#303030"/>
<path d="M243.2 89.2799C243.84 89.0399 244.4 89.3599 244.72 89.9199C245.04 90.6399 244.88 91.4399 244.8 92.2399C244.72 92.6399 245.28 92.7999 245.36 92.3999C245.52 91.4399 245.76 90.2399 245.04 89.3599C244.56 88.7199 243.76 88.3999 243.04 88.7199C242.64 88.7999 242.8 89.4399 243.2 89.2799Z" fill="#303030"/>
<path d="M244.72 89.1999C244.96 87.8399 245.28 86.4799 245.76 85.1999C246.16 84.1599 246.16 83.1999 247.44 83.3599C248.8 83.5199 248.4 84.5599 248.4 85.7599C248.24 89.1999 247.36 92.7199 246.72 95.9999C246.64 96.3999 247.2 96.5599 247.28 96.1599C247.92 93.0399 248.48 89.9199 248.88 86.7999C249.12 84.9599 249.28 82.9599 247.92 81.5199C247.84 81.4399 247.76 81.4399 247.6 81.4399C245.28 82.3999 244.56 86.9599 244.16 89.0399C244.08 89.4399 244.72 89.5999 244.72 89.1999Z" fill="#303030"/>
<path d="M283.12 132.16C281.28 133.6 278.96 135.76 276.48 138.56C274.72 140.56 273.36 142.48 271.84 144.64C268.56 149.52 266.32 153.92 264.08 158.56C259.68 167.52 255.68 175.84 251.44 187.68C250.56 190.16 249.84 192.24 249.36 193.68C247.04 195.28 243.92 197.44 240.32 200.08C236.8 202.72 233.44 205.2 229.36 208.72C226.96 210.8 223.84 213.6 220.32 217.2C223.12 216.72 227.2 216.4 232.08 216.96C240.88 218 247.36 221.52 251.04 223.92C256.16 227.36 259.28 230.96 260.96 233.04C263.44 236 266.08 239.84 268.96 246.08C275.2 259.68 278 274.8 279.04 281.68C281.2 279.6 284.24 276.56 287.68 272.56C296.08 262.8 300.8 254.24 306.56 243.68C312.88 232.16 316.72 223.12 318 219.92C318.96 217.68 322.32 209.44 325.76 198.16C328.16 190.4 330.8 180.48 333.04 168.88C329.6 164.4 324.48 158.4 317.36 152.4C315.84 151.12 312.96 148.64 309.2 146C303.76 141.92 295.04 136.56 283.12 132.16Z" fill="#DED7C6"/>
<path d="M283.04 132.4C302.8 139.76 320.08 152.4 332.96 169.04C333.2 169.36 333.6 168.88 333.36 168.64C320.4 151.92 302.96 139.2 283.12 131.84C282.88 131.68 282.72 132.32 283.04 132.4Z" fill="#303030"/>
<path d="M273.2 141.92C263.2 158.16 255.12 175.44 249.12 193.6C248.96 194 249.6 194.16 249.68 193.76C255.68 175.68 263.76 158.48 273.68 142.24C273.92 141.84 273.36 141.52 273.2 141.92Z" fill="#303030"/>
<path d="M246.16 195.52C236.96 201.84 228.24 208.8 220.08 216.48C219.76 216.72 220.24 217.2 220.48 216.88C228.64 209.28 237.28 202.32 246.4 196C246.8 195.84 246.48 195.28 246.16 195.52Z" fill="#303030"/>
<path d="M220.48 217.44C236.72 214.64 253.04 222.32 262.56 235.36C271.92 248.24 276.64 265.44 278.88 280.96C278.96 281.36 279.52 281.2 279.44 280.8C277.04 264.08 271.84 245.2 260.64 232C250.88 220.48 235.28 214.24 220.24 216.8C219.92 216.88 220.08 217.52 220.48 217.44Z" fill="#303030"/>
<path d="M331.36 175.04C323.68 214 306.24 250.56 280.64 280.88C280.4 281.2 280.8 281.6 281.04 281.28C306.64 250.8 324.24 214.16 331.92 175.12C332 174.88 331.44 174.72 331.36 175.04Z" fill="#303030"/>
<path d="M280 160.72C287.6 165.28 295.44 169.36 303.44 173.12C303.76 173.28 304.08 172.8 303.76 172.64C295.76 168.96 287.92 164.8 280.32 160.24C280 160 279.68 160.56 280 160.72Z" fill="#DED7C6"/>
<path d="M274.88 174C280.08 177.6 285.6 180.56 291.44 182.88C291.76 183.04 291.92 182.48 291.6 182.32C285.76 180 280.32 177.04 275.2 173.44C274.8 173.28 274.56 173.84 274.88 174Z" fill="#DED7C6"/>
<path d="M259.2 183.84C272.08 192.24 285.52 199.76 299.36 206.48C299.68 206.64 300 206.16 299.68 206C285.84 199.28 272.4 191.76 259.52 183.36C259.2 183.12 258.88 183.68 259.2 183.84Z" fill="#DED7C6"/>
<path d="M128.24 336.4C125.28 338.4 120.96 341.28 115.84 344.88C95.3601 359.12 85.1201 366.24 86.2401 369.2C88.0801 374.24 116.32 368 120.32 367.12C133.28 364.24 143.6 360.48 150.48 357.6C151.2 352.96 151.92 348.24 152.56 343.6C144.4 341.12 136.32 338.72 128.24 336.4Z" fill="#303030"/>
<path d="M109.12 350C112 350.08 113.84 352.32 115.36 354.48C115.6 354.8 116.08 354.48 115.84 354.16C114.16 351.76 112.16 349.44 109.04 349.36C108.72 349.36 108.72 350 109.12 350Z" fill="white"/>
<path d="M115.36 345.6C117.84 346.72 119.76 348.56 120.88 350.96C121.04 351.28 121.6 351.04 121.36 350.64C120.16 348.16 118.08 346.16 115.6 345.04C115.36 344.88 115.04 345.44 115.36 345.6Z" fill="white"/>
<path d="M120.88 341.92C123.52 343.04 125.44 345.2 126.24 348C126.32 348.4 126.96 348.24 126.8 347.84C126 344.96 123.92 342.56 121.2 341.44C120.88 341.28 120.56 341.76 120.88 341.92Z" fill="white"/>
<path d="M120.88 341.92C119.44 342.4 116.88 342.88 115.52 341.68C116.08 338.56 117.12 337.92 118.64 339.68C118.88 339.92 119.2 340.08 119.44 340.32C120.16 340.96 120.24 341.28 121.12 341.04C121.28 340.96 121.36 340.72 121.52 340.64C122.64 339.76 123.76 337.76 125.52 338C126.8 337.52 127.04 338.32 126.4 340.32C125.92 340.64 125.36 340.96 124.8 341.28C123.44 342 122.08 342.4 120.56 342.8C120.16 342.88 120.32 343.44 120.72 343.36C122.16 343.04 130.08 340.72 128.16 338.08C125.92 334.8 121.92 340.64 119.84 340C118.24 339.52 117.52 337.44 115.44 337.84C114.4 338.08 113.76 338.8 113.68 339.84C113.52 343.36 118.72 343.36 120.96 342.64C121.44 342.4 121.28 341.84 120.88 341.92Z" fill="white"/>
<path d="M125.92 338.72C130.48 323.76 135.04 311.44 138.72 302.4C143.36 290.88 147.44 282.16 155.68 264.72C161.04 253.36 165.36 244.8 170.4 235.44C182.32 213.36 176.8 227.44 186.88 210.32C188.32 207.84 190.96 203.28 196.24 200.72C200.56 198.64 204.8 198.8 206.32 198.88C209.04 199.04 211.68 199.68 218.48 202.96C222.96 205.12 227.28 207.2 232.08 210.4C245.52 219.28 256.56 232.64 259.84 236.64C261.44 240.4 263.92 248.16 260.96 255.84C256.24 268.16 239.28 276 220 271.92C215.68 276.96 209.04 284.56 200.72 293.84C192 303.52 187.04 308.64 176.32 320.24C170.56 326.48 162.24 335.52 152.16 346.64C150.4 346.8 147.92 346.96 144.96 346.88C139.92 346.72 136.56 346.64 132.96 344.88C131.28 344 128.48 342.32 125.92 338.72Z" fill="white"/>
<path d="M126.48 337.68C135.84 308.88 147.52 280.88 161.44 253.92C168.32 240.64 175.36 227.28 183.84 214.96C188.24 208.56 194.16 199.52 202.72 198.96C210 198.48 217.6 202.64 223.84 205.92C237.92 213.36 250.16 224 259.6 236.8C259.84 237.12 260.32 236.8 260.08 236.48C251.84 225.28 241.6 215.76 229.68 208.56C220 202.72 204.56 193.28 194 201.92C188.32 206.56 184 213.28 180.16 219.44C175.76 226.4 171.68 233.52 167.76 240.72C159.6 255.52 152.16 270.64 145.36 286.08C138 302.88 131.52 320.08 125.84 337.52C125.76 337.92 126.32 338.08 126.48 337.68Z" fill="#303030"/>
<path d="M152.4 346.8C175.04 322 197.76 297.2 220.4 272.4C220.64 272.08 220.24 271.68 220 272C197.36 296.8 174.64 321.6 152 346.4C151.76 346.64 152.16 347.12 152.4 346.8Z" fill="#303030"/>
<path d="M126.64 339.44C131.84 347.68 141.84 347.92 150.48 346.4C150.88 346.32 150.72 345.76 150.32 345.84C141.92 347.28 132.24 347.12 127.12 339.12C126.96 338.8 126.4 339.04 126.64 339.44Z" fill="#303030"/>
<path d="M89.1201 365.04C94.56 359.84 100.48 355.04 106.72 350.8C107.04 350.56 106.72 350.08 106.4 350.32C100.08 354.56 94.16 359.36 88.7201 364.64C88.4001 364.88 88.8001 365.28 89.1201 365.04Z" fill="white"/>
<path d="M296.4 124.8C295.84 126.16 295.2 127.84 294.64 129.76C293.76 132.56 293.36 134 293.44 135.92C293.44 136.8 293.52 138.8 294.56 141.04C296 144.24 298.56 145.84 299.84 146.56C301.36 147.52 302.8 148 303.68 148.24C303.76 148.8 303.76 149.28 303.84 149.84C303.04 149.36 302 149.36 301.2 149.84C300.48 150.32 300 151.2 300.16 152C300.4 153.28 302.24 153.76 303.2 154C305.52 154.64 307.52 154 308.72 153.6C310 153.2 310.88 152.88 311.84 152.08C313.84 150.32 313.92 147.6 313.92 146.8C316.88 145.28 318.88 143.6 320 142.4C321.12 141.2 321.6 140.48 321.84 139.92C322.88 137.92 322.8 136 322.8 135.12C322.64 131.28 320.4 128.48 319.28 127.2C318 125.6 313.92 120.72 307.2 120.56C301.28 120.4 297.36 123.84 296.4 124.8Z" fill="white"/>
<path d="M342.8 124.4C342.88 129.44 340.72 137.04 335.04 139.2C331.28 140.64 327.68 139.04 323.76 137.36C321.44 136.32 310.48 131.6 309.12 122.4C308.72 119.44 309.2 115.12 311.44 114.08C313.92 112.88 316.8 116.64 319.68 115.28C321.6 114.4 321.12 112.32 323.12 110.56C325.92 107.92 331.12 108.32 334.48 109.68C340.56 112.24 342.72 119.52 342.8 124.4Z" fill="#303030"/>
<path d="M295.68 127.52C296 127.04 298.56 123.76 301.84 123.12C302.72 122.96 304.48 122.64 305.92 123.6C306.4 123.92 307.2 124.72 308.16 129.92C308.8 133.52 308.56 133.92 309.2 136C309.84 138 310.48 139.84 312.32 140.96C312.56 141.12 314.16 142 316.08 141.68C316.96 141.52 317.44 141.2 319.12 140.24C320.48 139.52 321.6 138.96 322.4 138.56C322.8 137.6 323.28 136.24 323.52 134.56C323.68 133.6 323.76 132 323.52 130.08C323.36 129.28 322.8 125.84 320.48 123.04C319.2 121.52 317.04 119.76 311.36 118.4C304.8 116.8 292.48 115.52 290.96 119.52C290.48 120.88 290.96 123.12 295.68 127.52Z" fill="#303030"/>
<path d="M295.36 127.36C292.4 132.96 291.84 139.84 296.64 144.64C300.8 148.8 308.8 150.56 313.84 147.12C314.16 146.88 313.84 146.4 313.52 146.64C308.72 149.84 300.88 148.32 297.04 144.24C292.48 139.6 293.04 133.12 295.84 127.68C296.08 127.28 295.6 127.04 295.36 127.36Z" fill="#303030"/>
<path d="M303.28 148.24C303.36 149.12 303.44 149.92 303.6 150.8C303.68 151.2 304.24 151.2 304.24 150.8C304.16 149.92 304.08 149.12 303.92 148.24C303.84 147.84 303.2 147.84 303.28 148.24Z" fill="#303030"/>
<path d="M300.88 149.6C299.04 151.44 299.76 153.12 302.16 154.08C304.88 155.12 308.8 154.24 311.2 152.8C311.52 152.56 311.2 152.08 310.88 152.32C309.28 153.28 307.52 153.68 305.68 153.84C304.8 153.92 303.84 154 303.04 153.76C301.68 153.44 299.28 152.16 301.36 150.08C301.6 149.76 301.2 149.36 300.88 149.6Z" fill="#303030"/>
<path d="M298.72 130.96C297.12 133.52 296.48 136.48 296.96 139.44C297.04 139.84 297.6 139.68 297.52 139.28C297.04 136.4 297.6 133.68 299.2 131.28C299.52 130.96 298.96 130.64 298.72 130.96Z" fill="#303030"/>
<path d="M298.64 122.96C304.48 118.48 313.84 116.4 319.44 122.4C324.48 127.76 324.4 135.68 320.32 141.52C320.08 141.84 320.64 142.16 320.8 141.84C325.28 135.44 324.96 126.64 319.04 121.2C313.12 115.84 303.92 118.24 298.24 122.64C297.92 122.8 298.32 123.2 298.64 122.96Z" fill="#303030"/>
<path d="M297.6 124.8C298.56 124.32 299.52 123.68 300.56 123.36C301.28 123.2 302 123.04 302.72 122.96C304.24 124.16 305.76 125.36 307.28 126.56C308 127.92 307.76 130.08 308 131.6C308.4 134.32 308.72 137.84 310.72 140C314.56 144.32 318.24 140.56 322 138.8C322.32 138.64 322.08 138.08 321.68 138.32C320.32 138.96 319.12 140.4 317.76 140.88C313.44 142.48 310.72 139.84 309.52 136C308.48 132.64 309.04 128.56 307.52 125.36C305.44 121.04 300.64 122.64 297.28 124.4C296.96 124.48 297.2 125.04 297.6 124.8Z" fill="#303030"/>
<path d="M296.998 132.132C297.254 131.618 297.205 131.074 296.888 130.916C296.572 130.759 296.108 131.048 295.852 131.562C295.596 132.076 295.646 132.621 295.962 132.778C296.278 132.936 296.742 132.647 296.998 132.132Z" fill="#303030"/>
<path d="M303.626 134.184C303.882 133.67 303.833 133.125 303.516 132.968C303.2 132.811 302.736 133.1 302.48 133.614C302.224 134.128 302.273 134.673 302.59 134.83C302.906 134.988 303.37 134.698 303.626 134.184Z" fill="#303030"/>
<path d="M296.64 127.52C297.36 126.72 298.64 126.88 298.96 128C299.04 128.4 299.68 128.24 299.52 127.84C299.04 126.32 297.2 125.92 296.16 127.12C295.92 127.36 296.32 127.76 296.64 127.52Z" fill="#303030"/>
<path d="M303.36 129.12C304.72 128.32 305.84 129.92 306 131.12C306.08 131.52 306.64 131.52 306.64 131.12C306.56 130.24 306.24 129.36 305.44 128.8C304.72 128.32 303.84 128.24 303.12 128.64C302.72 128.8 303.04 129.36 303.36 129.12Z" fill="#303030"/>
<path d="M317.04 120.32C319.76 119.68 322.48 120.8 324 122.96C325.68 125.36 325.52 128.72 323.6 131.04C323.68 130.72 324.88 126.4 322.08 123.04C320.24 120.96 317.76 120.48 317.04 120.32Z" fill="white"/>
<path d="M312.8 281.44C313.12 282.96 313.36 284.16 313.52 285.04C313.84 287.04 313.84 287.6 314.24 288.48C314.48 288.96 315.04 290.4 316.32 291.36C317.28 292.08 318.24 292.24 320.96 292.4C324.96 292.64 326.96 292.8 329.52 292.64C330.8 292.56 332 292.4 334.4 292.08C339.6 291.44 342.24 291.12 343.84 290.48C346.88 289.36 351.04 286.88 350.64 285.12C350.56 284.72 350.24 283.92 345.12 282.72C339.76 281.44 335.52 281.28 335.28 281.28C329.36 281.04 327.76 281.84 321.76 281.84C317.84 281.92 314.72 281.68 312.8 281.44Z" fill="white"/>
<path d="M314.24 148.32C312.72 151.12 312.24 153.6 311.92 155.12C311.12 159.2 311.6 161.68 311.76 165.36C311.92 170.32 311.28 172.88 310.64 178C309.12 190.24 309.12 204.16 309.12 217.44C309.12 228.96 309.52 237.68 309.6 240.32C310.08 251.2 311.12 265.28 313.36 281.76C313.68 282.08 314.88 283.04 316.72 283.04C318.4 283.12 319.6 282.32 319.92 282.08C320.16 280.88 320.56 279.12 321.04 276.88C322.96 268 324.24 262.16 325.2 257.68C328.16 244.24 329.68 236.64 331.04 228.72C331.6 225.36 332.4 220.24 331.84 213.6C331.52 210.08 330.96 207.28 330.56 205.28C330.8 203.84 331.12 201.68 331.6 199.12C332.24 195.28 335.44 179.92 335.92 177.28C339.84 158.08 337.44 165.76 339.28 157.76C339.76 155.76 340.8 151.44 339.52 146.32C338.48 142.16 336.72 140.48 336.24 140.08C333.68 137.92 330.56 137.92 329.28 137.92C324.88 137.92 321.76 140.24 320 141.52C319.2 142.08 316.4 144.32 314.24 148.32Z" fill="#DED7C6"/>
<path d="M312.8 152.56C314.96 145.36 321.12 138.72 328.96 138.24C340.08 137.52 339.92 149.52 339.04 157.36C337.36 172.56 333.52 187.6 330.56 202.56C330.48 202.96 331.04 203.12 331.12 202.72C333.2 192.32 335.28 181.92 337.28 171.52C338.16 167.04 338.96 162.56 339.44 158.08C340 153.6 340.64 148.64 339.12 144.32C336.96 138.32 331.04 136.48 325.28 138.32C318.72 140.4 314 146 312.08 152.4C312.16 152.8 312.72 152.96 312.8 152.56Z" fill="#303030"/>
<path d="M311.44 165.36C307.68 203.44 308 241.84 312.56 279.84C312.64 280.24 313.2 280.24 313.2 279.84C308.64 241.84 308.24 203.44 312.08 165.36C312.08 164.96 311.52 164.96 311.44 165.36Z" fill="#303030"/>
<path d="M330.64 206.24C332.96 219.04 330.64 231.84 327.92 244.4C325.36 256.32 322.72 268.32 320.08 280.24C320 280.64 320.56 280.8 320.64 280.4C323.44 267.44 326.4 254.56 329.12 241.6C331.6 229.92 333.36 218 331.2 206.16C331.12 205.68 330.56 205.84 330.64 206.24Z" fill="#303030"/>
<path d="M313.2 282C315.2 283.68 318 283.84 320.16 282.4C320.48 282.16 320.16 281.68 319.84 281.92C317.92 283.2 315.44 283.12 313.6 281.6C313.36 281.36 312.88 281.76 313.2 282Z" fill="#303030"/>
<path d="M313.2 285.2C313.84 287.12 313.6 289.6 315.12 291.04C316.56 292.4 319.2 292.56 321.12 292.8C328.4 293.76 335.68 292.32 342.8 290.96C343.2 290.88 343.04 290.32 342.64 290.4C337.28 291.44 331.84 292.48 326.32 292.48C323.68 292.48 320.8 292.48 318.32 291.68C314.08 290.32 314.88 288.16 313.84 285.04C313.68 284.64 313.04 284.8 313.2 285.2Z" fill="#303030"/>
<path d="M332.4 288.08C335.92 287.6 339.44 287.2 342.56 289.28C342.88 289.52 343.2 288.96 342.88 288.8C339.68 286.72 336 287.04 332.4 287.52C332.08 287.52 332.08 288.16 332.4 288.08Z" fill="#303030"/>
<path d="M321.76 282.24C326.4 282 331.04 281.68 335.68 281.68C341.12 281.6 345.6 283.2 350.48 285.52C350.8 285.68 351.12 285.2 350.8 285.04C346.8 283.12 342.8 281.36 338.32 281.12C332.88 280.8 327.28 281.44 321.84 281.68C321.36 281.6 321.36 282.24 321.76 282.24Z" fill="#303030"/>
<path d="M335.2 285.2C339.84 285.04 344.48 285.6 348.96 286.88C349.36 286.96 349.52 286.4 349.12 286.32C344.56 285.04 339.92 284.48 335.2 284.64C334.88 284.64 334.88 285.2 335.2 285.2Z" fill="#303030"/>
<path d="M337.6 283.04C341.36 283.28 344.96 283.84 348.56 284.88C348.96 284.96 349.12 284.4 348.72 284.32C345.04 283.28 341.36 282.64 337.6 282.48C337.28 282.48 337.28 283.04 337.6 283.04Z" fill="#303030"/>
</svg>
