<svg width="551" height="100" viewBox="0 0 551 100" fill="none" xmlns="http://www.w3.org/2000/svg">
<path d="M44.8491 23.4925V97.3618H20.226V23.4925H-0.00012207V2.63819H65.0753V23.4925H44.8491Z" fill="#303030"/>
<path d="M121.777 50C121.777 53.7688 122.489 57.2445 123.912 60.4271C125.336 63.6097 127.262 66.3735 129.691 68.7186C132.12 71.0636 134.926 72.9062 138.108 74.2462C141.375 75.5025 144.809 76.1306 148.41 76.1306C152.011 76.1306 155.403 75.5025 158.586 74.2462C161.852 72.9062 164.7 71.0636 167.128 68.7186C169.641 66.3735 171.609 63.6097 173.033 60.4271C174.457 57.2445 175.169 53.7688 175.169 50C175.169 46.2312 174.457 42.7554 173.033 39.5729C171.609 36.3903 169.641 33.6265 167.128 31.2814C164.7 28.9363 161.852 27.1357 158.586 25.8794C155.403 24.5394 152.011 23.8693 148.41 23.8693C144.809 23.8693 141.375 24.5394 138.108 25.8794C134.926 27.1357 132.12 28.9363 129.691 31.2814C127.262 33.6265 125.336 36.3903 123.912 39.5729C122.489 42.7554 121.777 46.2312 121.777 50ZM96.023 50C96.023 42.9648 97.3211 36.4322 99.9174 30.402C102.514 24.2881 106.115 18.9698 110.721 14.4472C115.328 9.92462 120.814 6.40703 127.179 3.89447C133.628 1.29816 140.705 0 148.41 0C156.031 0 163.066 1.29816 169.515 3.89447C175.964 6.40703 181.492 9.92462 186.098 14.4472C190.788 18.9698 194.432 24.2881 197.028 30.402C199.624 36.4322 200.922 42.9648 200.922 50C200.922 57.0352 199.624 63.6097 197.028 69.7236C194.432 75.7538 190.788 81.0302 186.098 85.5528C181.492 90.0754 175.964 93.6348 169.515 96.2312C163.066 98.7437 156.031 100 148.41 100C140.705 100 133.628 98.7437 127.179 96.2312C120.814 93.6348 115.328 90.0754 110.721 85.5528C106.115 81.0302 102.514 75.7538 99.9174 69.7236C97.3211 63.6097 96.023 57.0352 96.023 50Z" fill="#303030"/>
<path d="M266.225 46.1055H274.39C283.436 46.1055 287.958 42.1692 287.958 34.2965C287.958 26.4238 283.436 22.4874 274.39 22.4874H266.225V46.1055ZM266.225 97.3618H241.601V2.63819H280.797C291.434 2.63819 299.558 5.40201 305.169 10.9296C310.864 16.4573 313.712 24.2462 313.712 34.2965C313.712 44.3467 310.864 52.1357 305.169 57.6633C299.558 63.191 291.434 65.9548 280.797 65.9548H266.225V97.3618Z" fill="#303030"/>
<path d="M398.102 62.1859L387.046 30.6533L375.991 62.1859H398.102ZM404.634 80.9045H369.459L363.805 97.3618H337.549L373.604 2.63819H400.489L436.544 97.3618H410.288L404.634 80.9045Z" fill="#303030"/>
<path d="M505.735 76.5075H545.433V97.3618H464.403L509.252 23.4925H471.941V2.63819H550.333L505.735 76.5075Z" fill="#303030"/>
</svg>
